<?xml version="1.0" standalone="no"?>
<!DOCTYPE svg PUBLIC "-//W3C//DTD SVG 20010904//EN"
 "http://www.w3.org/TR/2001/REC-SVG-20010904/DTD/svg10.dtd">
<svg version="1.0" xmlns="http://www.w3.org/2000/svg"
 width="260.000000pt" height="260.000000pt" viewBox="0 0 260.000000 260.000000"
 preserveAspectRatio="xMidYMid meet">
<metadata>
Created by potrace 1.11, written by Peter Selinger 2001-2013
</metadata>
<g transform="translate(0.000000,260.000000) scale(0.100000,-0.100000)"
fill="#000000" stroke="none">
<path d="M513 1295 c0 -707 2 -1285 4 -1285 3 0 70 48 151 107 13 9 32 22 42
27 10 6 110 76 222 155 112 79 232 164 268 189 36 25 171 120 300 211 129 90
287 201 350 245 63 45 128 90 145 100 16 11 34 23 40 28 29 23 111 82 207 148
l108 74 -48 33 c-26 19 -56 41 -67 49 -29 21 -854 600 -997 700 -40 27 -218
152 -396 277 -178 125 -324 227 -326 227 -2 0 -3 -578 -3 -1285z"/>
</g>
</svg>
