<?xml version="1.0" standalone="no"?>
<!DOCTYPE svg PUBLIC "-//W3C//DTD SVG 20010904//EN"
 "http://www.w3.org/TR/2001/REC-SVG-20010904/DTD/svg10.dtd">
<svg version="1.0" xmlns="http://www.w3.org/2000/svg"
 width="270.000000pt" height="270.000000pt" viewBox="0 0 270.000000 270.000000"
 preserveAspectRatio="xMidYMid meet">
<metadata>
Created by Christian Schellenberg
</metadata>
<g transform="translate(0.000000,270.000000) scale(0.100000,-0.100000)"
fill="#000000" stroke="none">
<path d="M55 1350 c0 -726 1 -1320 3 -1320 2 0 235 118 722 366 135 69 421
214 635 323 215 109 478 243 585 298 107 55 292 149 410 208 118 60 221 113
228 118 9 7 -4 18 -50 42 -232 117 -974 494 -1123 570 -99 51 -328 168 -510
260 -181 92 -457 232 -611 311 -155 79 -283 144 -285 144 -2 0 -4 -594 -4
-1320z"/>
</g>
</svg>